<svg width="22" height="22" viewBox="0 0 22 22" fill="none" xmlns="http://www.w3.org/2000/svg">
<path d="M20.0417 12.3333H12.3333V20.0417C12.3333 20.4505 12.1709 20.8427 11.8818 21.1318C11.5927 21.4209 11.2005 21.5833 10.7917 21.5833C10.3828 21.5833 9.99066 21.4209 9.70154 21.1318C9.41243 20.8427 9.25 20.4505 9.25 20.0417V12.3333H1.54167C1.13279 12.3333 0.740663 12.1709 0.451544 11.8818C0.162425 11.5927 0 11.2005 0 10.7917C0 10.3828 0.162425 9.99066 0.451544 9.70154C0.740663 9.41243 1.13279 9.25 1.54167 9.25H9.25V1.54167C9.25 1.13279 9.41243 0.740662 9.70154 0.451543C9.99066 0.162425 10.3828 0 10.7917 0C11.2005 0 11.5927 0.162425 11.8818 0.451543C12.1709 0.740662 12.3333 1.13279 12.3333 1.54167V9.25H20.0417C20.4505 9.25 20.8427 9.41243 21.1318 9.70154C21.4209 9.99066 21.5833 10.3828 21.5833 10.7917C21.5833 11.2005 21.4209 11.5927 21.1318 11.8818C20.8427 12.1709 20.4505 12.3333 20.0417 12.3333Z" fill="black"/>
</svg>
